<?xml version="1.0" standalone="no"?>
<!DOCTYPE svg PUBLIC "-//W3C//DTD SVG 20010904//EN"
 "http://www.w3.org/TR/2001/REC-SVG-20010904/DTD/svg10.dtd">
<svg version="1.0" xmlns="http://www.w3.org/2000/svg"
 width="1458.000000pt" height="1458.000000pt" viewBox="0 0 1458.000000 1458.000000"
 preserveAspectRatio="xMidYMid meet">
<metadata>
Created by potrace 1.14, written by Peter Selinger 2001-2017
</metadata>
<g transform="translate(0.000000,1458.000000) scale(0.100000,-0.100000)"
fill="#000000" stroke="none">
<path d="M7090 14029 c-866 -74 -1577 -278 -2238 -642 -564 -310 -1074 -765
-1449 -1292 -313 -439 -549 -991 -652 -1519 -74 -377 -66 -595 28 -841 l31
-79 -43 -66 c-88 -131 -322 -436 -695 -903 -571 -715 -726 -926 -841 -1151
-83 -161 -106 -233 -106 -331 1 -64 5 -90 25 -130 49 -102 195 -212 422 -320
69 -33 119 -48 193 -60 351 -58 412 -124 340 -370 -15 -49 -37 -132 -51 -184
-26 -102 -38 -125 -125 -246 -72 -100 -99 -158 -99 -215 0 -101 45 -174 171
-276 40 -33 91 -75 112 -95 l40 -35 -18 -37 c-9 -20 -57 -82 -107 -139 -92
-105 -127 -163 -128 -209 0 -33 39 -93 134 -204 169 -198 219 -298 220 -440 1
-87 -2 -99 -86 -350 -144 -433 -175 -587 -145 -736 29 -147 116 -291 265 -436
145 -141 312 -235 530 -298 l123 -35 980 -7 979 -6 39 -51 c44 -57 134 -233
174 -341 85 -225 172 -599 247 -1055 17 -102 32 -195 35 -207 l5 -23 3255 0
c3101 0 3255 1 3255 18 0 9 -22 127 -49 262 -289 1432 -482 2971 -432 3453 23
222 78 399 201 655 101 209 210 390 409 682 569 835 602 892 755 1303 439
1179 537 2363 281 3395 -133 537 -364 1042 -673 1472 -627 874 -1568 1500
-2755 1835 -398 112 -841 192 -1322 241 -188 18 -1064 28 -1235 13z m1465
-1973 c130 -47 228 -136 288 -264 51 -109 49 -323 -3 -424 -7 -11 -4 -18 8
-23 9 -3 234 -9 500 -12 l483 -6 -3 -518 c-2 -392 -6 -521 -15 -530 -10 -10
-24 -7 -65 14 -50 25 -62 27 -189 27 -134 0 -137 -1 -200 -32 -85 -44 -195
-154 -233 -232 -60 -125 -58 -265 4 -392 37 -76 128 -164 220 -214 l65 -35
150 0 c149 0 150 0 193 29 33 23 45 27 55 17 9 -9 13 -138 15 -511 l3 -500
-505 0 c-278 0 -506 4 -506 9 0 4 14 35 31 68 24 47 32 77 36 141 11 159 -34
279 -141 380 -281 261 -712 132 -812 -243 -21 -77 -17 -118 21 -232 19 -58 35
-109 35 -114 0 -5 -209 -9 -515 -9 l-515 0 -2 504 -3 504 -70 -31 c-67 -30
-75 -32 -205 -32 -134 0 -136 0 -199 34 -308 160 -364 558 -113 793 77 71 146
106 240 119 93 14 178 4 262 -32 40 -17 75 -27 79 -24 3 4 7 240 9 526 l3 519
521 0 c491 0 520 1 515 18 -4 9 -16 44 -27 77 -19 52 -21 76 -18 190 3 122 5
134 36 195 47 95 146 190 240 230 122 52 214 56 327 16z"/>
</g>
</svg>
