<?xml version="1.0" encoding="utf-8"?>
<!-- Generator: Adobe Illustrator 14.0.0, SVG Export Plug-In . SVG Version: 6.00 Build 43363)  -->
<!DOCTYPE svg PUBLIC "-//W3C//DTD SVG 1.1//EN" "http://www.w3.org/Graphics/SVG/1.1/DTD/svg11.dtd">
<svg version="1.1" xmlns="http://www.w3.org/2000/svg" xmlns:xlink="http://www.w3.org/1999/xlink" x="0px" y="0px" width="300px"
	 height="100px" viewBox="0 0 300 100" enable-background="new 0 0 300 100" xml:space="preserve">
<g>
	<path d="M296.479,24.731l-0.795,2.109l-0.792-2.109h-0.457v2.51h0.317v-2.089h0.007l0.785,2.089h0.283l0.784-2.089h0.007v2.089
		h0.317v-2.51H296.479z M292.229,25.01h0.835v2.23h0.335v-2.23h0.836v-0.279h-2.006V25.01z"/>
	<path d="M277.626,18.976l0.996-3.287h-4.584l1.292-3.89l5.087-0.497l1.194-3.692c-5.328,0.167-11.47,1.378-13.061,1.708
		l-5.025-2.438l-5.329,11.643l-3.342-10.066l-4.954,2.555c-7.064-4.862-14.674-4.044-19.888-0.354l1.521-2.947
		c-9.078-0.099-21.255,0.696-21.255,0.696l-5.585,10.08l8.485-0.6c-1.202,4.084-6.146,22.183-11.776,23.442
		c-3.698,0.825-5.188-1.394-5.188-1.394l-7.382,5.492c3.59,5.778,9.38,8.535,16.256,5.583c6.287-2.692,9.084-7.981,12.373-15.67
		c3.296-7.675,5.793-16.763,5.793-16.763l-2.8-1.394l4.355-0.27c-2.912,6.976,2.563,13.987,7.677,14.744
		c4.013,0.589,8.938-0.872,12.539-3.651c-0.278,0.913-0.445,1.486-0.445,1.486l5.091,1.066l4.053-10.819l2.173,10.297l5.086-1.512
		c3.704-9.682,6.666-15.824,7.757-17.995l1.174,2.226l-5.36,15.9c7.986-1.291,12.572-1.592,12.572-1.592l1.396-3.49
		c-4.485-0.305-6.887-0.108-6.887-0.108l1.195-4.181L277.626,18.976z M234.059,23.378c-2.54-1.825-2.077-6.356,1.637-7.89
		c4.115-1.693,6.135,1.098,6.135,1.098l-1.283,0.796C242.684,21.271,237.808,26.052,234.059,23.378z M249.771,14.272l-1.923,0.819
		l2.168-3.594l0.394,1.342C250.204,13.271,249.988,13.761,249.771,14.272z M293.087,11.799l-2.889-7.581
		c-5.814,0.892-7.706,4.971-7.679,8.267c0.019,2.593,2.054,3.884,1.789,5.297c-0.497,2.643-4.183,3.395-4.183,3.395l0.897,5.984
		c8.07,1.493,11.288-8.813,10.17-12.47C290.198,11.412,293.087,11.799,293.087,11.799z M110.117,16.586
		c-7.354-4.118-23.043-0.299-23.043-0.299c0.119,0.328,0.244,0.692,0.37,1.072l-6.359-2.068L69.514,41.126
		c-1.603-11.768-4.092-22.046-4.092-22.046c-7.183,2.594-10.98,4.861-10.98,4.861l1.301,4.071
		c-9.339,17.672-15.369,35.734-18.012,44.46c-2.124,0.344-4.435,0.776-4.435,0.776c3.988-23.24,9.975-38.406,9.975-38.406
		l-3.292-4.093c7.384-1.292,12.272-1.591,12.272-1.591c2.1-5.188,5.389-13.364,5.389-13.364c-18.76,1.491-34.471,6.525-34.471,6.525
		s-1.321,2.512-2.833,5.869c-1.6,3.551-3.401,7.951-3.401,7.951c6.183-1.794,10.973-2.791,10.973-2.791
		c-9.979,20.705-13.17,44.296-13.17,44.296c-4.393,1.094-7.883,2.393-7.883,2.393s-2.893,9.631-3.79,16.31
		c0,0,8.726-3.319,18.129-6.146c9.441-2.852,16.295-3.882,16.295-3.882c0.778-3.063,1.777-7.159,2.509-10.176
		c2.239-0.994,4.964-2.19,6.716-2.911c3.378-1.393,6.64-2.373,6.64-2.373c4.688-17.861,9.324-23.293,9.324-23.293
		c1.896,8.38,3.74,18.903,3.74,18.903c4.49-2.388,11.374-5.391,11.374-5.391c3.444-13.146,8.738-28.308,11.689-36.448
		c0.467,1.862,0.785,3.233,0.785,3.233l3.387-1.399C87.469,40.736,82.877,59.79,82.877,59.79s11.819,0.439,22.198-7.639
		C116.948,42.919,121.242,22.82,110.117,16.586z M94.453,47.414c0,0,2.396-12.771,6.684-22.741l-1.892-2.004
		c0,0,4.578-2.036,8.525,2.05C111.689,28.771,110.418,40.736,94.453,47.414z M193.142,37.437
		c3.241-10.074,4.871-26.038,4.871-26.038h-9.908c-4.556,5.534-8.696,11.067-12.108,15.846c2.596-5.953,5.739-12.92,7.649-16.293
		l-9.043,0.012l-7.061,12.789l-1.553-12.178l-7.87,3.982l0.768,2.513l-5.844,8.734c1.332-8.71,1.669-14.108,1.669-14.108
		l-10.972,0.099c-6.368,7.069-11.317,13.473-15.114,18.923c4.024-10.798,7.629-18.825,7.629-18.825l-9.478,0.951
		c-5.388,9.729-13.866,34.124-13.866,34.124s3.9-0.966,6.273-1.405c0.149-0.027,0.298-0.055,0.447-0.083
		c-1.359,2.662-1.932,4.132-1.932,4.132s2.71-0.383,5.074-0.96c2.47-0.609,5.1-0.938,5.1-0.938l3.895-8.678l11.272-1.802l-1.6,6.382
		l8.486-1.193c0.139-0.626,0.273-1.245,0.406-1.858l4.895-0.659l7.212-14.943c0,0,0.893,5.705,1.981,14.084l3.73-1.316
		c-1.076,1.652-1.664,2.598-1.664,2.598s1.872-0.376,3.688-0.583c2.487-0.279,5.121-0.415,5.121-0.415l3.802-7.085l8.106,0.103
		l-1.607,4.992L193.142,37.437z M143.8,28.152c-0.155,3.37-0.258,5.392-0.258,5.392l-2.995-1.398l-3.692,0.31l6.688-9.482
		C143.542,22.974,143.964,24.543,143.8,28.152z M185.212,27.758l-3.219-0.095l6.218-7.484c0,0,0.617,0.599,0.063,8.579
		L185.212,27.758z"/>
	<path d="M197.431,35.406l0.263-0.75c3.304-9.505,5.171-25.238,5.249-25.909l0.163-1.439l-7.787,0.266l-0.339,0.307
		c-5.403,4.849-10.556,10.719-14.699,15.869c2.512-5.44,5.522-11.791,7.247-14.827l1.091-1.936l-9.137,0.295
		c0,0-4.185,8.135-6.14,11.934c-0.816-3.735-2.442-11.13-2.442-11.13l-8.747,2.874c0,0,0.685,3.411,0.824,4.115
		c-0.234,0.399-3.848,6.638-7.323,12.642c1.917-10.839,2.396-17.441,2.4-17.529l0.095-1.374L149.84,9.07l-0.358,0.408
		c-7.386,8.481-12.893,15.562-16.901,21.109c4.516-11.467,9.095-19.667,9.154-19.774l1.132-2.02L132.83,9.498l-0.337,0.562
		c-3.331,5.55-6.195,11.429-8.48,16.633c0.107-0.894,0.159-1.784,0.151-2.664c-0.055-5.219-2.159-9.633-5.92-12.434
		c-7.174-5.34-21.909-1.271-22.531-1.097l-1.301,0.368l0.468,1.268c0.223,0.603,0.432,1.232,0.626,1.862l-7.664-3.095
		c0,0-6.262,13.283-8.632,18.311c-1.573-9.515-3.625-15.809-3.725-16.11l-0.399-1.219l-1.208,0.442
		c-7.279,2.626-9.9,4.583-10.011,4.662l-0.706,0.539c0,0,1.057,3.254,1.302,4.015C57.563,33.816,53.156,45.242,50.67,52.706
		c-2.563,7.696-3.646,12.732-3.811,13.517h-0.596c-0.964,0-4.065,0.521-6.139,0.895c3.983-21.951,11.004-38.5,11.078-38.669
		l0.299-0.684c0,0-1.49-1.844-2.436-3.02c6.055-0.972,10.003-1.229,10.047-1.229l0.786-0.052l0.295-0.724
		c2.061-5.101,4.347-10.292,4.37-10.342l0.85-1.91l-2.091,0.162c-18.679,1.489-32.068,5.704-32.203,5.747l-0.522,0.165l-6.57,14.316
		l2.975-1.273c2.107-0.897,5.82-1.751,8.269-2.249c-5.071,10.668-8.617,21.796-10.747,29.477
		c-1.965,7.099-3.094,12.554-3.479,14.512c-4.028,1.052-7.103,2.187-7.241,2.239l-0.562,0.206l-0.187,0.567
		c-0.091,0.283-2.24,6.87-3.144,13.593l-0.271,2.005l1.907-0.661c0.066-0.015,6.436-2.19,16.251-4.777
		c8.482-2.23,15.189-3.237,15.259-3.252l0.819-0.112l0.207-0.806c1.156-4.547,2.739-10.245,3.229-11.993l1.315-0.68
		c0.038-0.013,3.523-1.799,6.841-3.168c3.28-1.348,6.489-2.326,6.524-2.33l0.668-0.2l0.175-0.681
		c2.613-9.945,4.696-16.002,6.017-19.375c1.234,7.414,1.6,15.433,1.609,15.525l0.085,1.977l1.748-0.932
		c4.367-2.333,9.688-4.407,9.741-4.429l0.59-0.232l0.163-0.613c4.904-18.745,12.931-37.544,13.009-37.736l0.088-0.204
		c0.763,2.701,1.229,5.101,1.236,5.131l0.274,1.455c0,0,1.053-0.397,1.256-0.475C91.563,37.308,88.186,52.27,88.146,52.433
		l-0.373,1.669l1.707-0.166c0.137-0.005,3.389-0.323,7.964-1.646c4.217-1.228,10.415-3.59,15.932-7.885
		c2.34-1.82,4.378-3.954,6.037-6.277c-0.965,2.64-1.489,4.262-1.506,4.313l-0.708,2.221l2.24-0.638
		c0.021-0.005,2.143-0.611,4.059-1.035c0.35-0.077,0.69-0.15,1.025-0.219c-0.733,1.261-1.094,1.965-1.152,2.082l-1.281,2.525
		l2.732-0.758c0.02-0.003,2.417-0.667,4.734-1.249c2.426-0.598,4.843-1.125,4.867-1.126l0.52-0.11c0,0,4.495-7.238,5.051-8.124
		c0.77-0.101,3.737-0.461,5.7-0.704c-0.462,1.888-1.604,6.615-1.604,6.615l8.959-1.277l0.188-0.842
		c0.116-0.52,0.219-1.017,0.33-1.526l7.561-1.204c0,0,2.915-5.829,4.609-9.207c0.343,1.793,0.774,4.318,1.204,7.636l0.206,1.598
		l4.51-1.815c-0.453,0.657-0.709,1.041-0.727,1.065l-1.526,2.308l11.884-1.661c0,0,3.505-5.384,4.072-6.254
		c0.739-0.052,3.054-0.245,4.823-0.394c-0.436,1.715-1.5,5.911-1.5,5.911L197.431,35.406z M192.572,20.871
		c-0.116,0.499-0.247,1.052-0.397,1.667c-0.146-0.007-0.698-0.03-0.864-0.032C191.793,21.875,191.944,21.687,192.572,20.871z
		 M115.309,27.119c-0.991,4.299-5.289,8.284-11.901,11.126c1.028-3.56,3.19-10.578,6.161-17.47l0.324-0.756
		c0,0-0.794-0.838-0.883-0.926c1.36-0.012,3.228,0.415,4.997,2.251c0.984,1.015,1.503,2.451,1.503,4.04
		C115.51,25.947,115.448,26.536,115.309,27.119z M148.26,23.725c-0.203,1.051-0.393,1.972-0.557,2.741
		c-0.023,0.001-1.288,0.102-1.71,0.136c0.834-1.177,1.208-1.709,2.353-3.336C148.318,23.414,148.289,23.563,148.26,23.725z
		 M293.411,10.055h-0.021l1.788-0.019l-0.621-1.672l-1.686-4.454l-0.811-0.04c-0.41-0.023-4.103-0.17-6.245,1.957
		c-0.38,0.384-0.804,0.874-1.187,1.461l0.815-3.072l-1.673,0.049c-6.183,0.199-11.859,1.004-11.91,1.01l-1.532,0.224
		c0,0,0.135,0.365,0.328,0.888l-4.286-2.303c0,0-2.853,6.219-4.267,9.297c-1.023-2.866-2.974-8.319-2.974-8.319l-6.324,3.769
		c0,0,0.011,0.032,0.027,0.084l-0.789-0.603c-3.146-2.396-7.165-3.212-11.333-2.314c-2.243,0.485-4.394,1.458-6.315,2.763
		l2.848-5.071l-2.103-0.026c-9.029-0.1-18.47,0.602-18.564,0.602l-0.68,0.059l-6.1,11.007c0,0,5.177-0.639,7.063-0.872
		c0,0.002-0.012,0.066-0.012,0.066c-0.841,3.056-2.238,8.183-4.035,12.68c-2.699,6.733-4.726,8.102-5.695,8.319
		c-2.955,0.656-4.683-0.921-4.756-0.982c-0.017-0.014-0.724-0.693-0.724-0.693l-0.841,0.565l-8.952,6.119l0.773,1.041
		c1.318,1.772,3.506,4.175,6.452,5.593c3.207,1.535,6.578,1.571,10.005,0.097c3.18-1.363,5.638-3.34,7.729-6.222
		c1.839-2.534,3.313-5.627,5.101-9.798c3.289-7.67,5.816-16.829,5.843-16.919c0,0,0.115-0.423,0.19-0.709
		c0.495-0.027,1.063-0.057,1.611-0.088c-0.329,0.478-0.638,0.966-0.912,1.472c-2.097,3.885-2.375,7.799-0.774,11.035
		c1.314,2.651,3.81,4.505,6.674,4.95c4.718,0.746,9.499-1.129,12.827-4.86c-0.015,0.04-0.035,0.093-0.041,0.108l-0.503,1.354
		l6.772,1.423c0,0,1.636-4.573,2.749-7.687c0.721,2.979,1.845,7.6,1.845,7.6l6.13-2.282l0.198-0.526
		c3.467-9.045,6.257-14.821,7.24-16.777c0.112,0.304,0.203,0.543,0.249,0.667c-0.294,0.821-6.106,16.916-6.106,16.916l1.985-0.213
		c7.317-0.783,11.298-0.791,11.339-0.791h0.843l0.315-0.787l1.475-3.682l1.293,4.353l0.798,0.099
		c0.146,0.023,3.606,0.449,6.265-1.404c1.137-0.79,1.999-2.124,2.428-3.764c0.394-1.486,0.355-3.03-0.097-4.122
		c-0.154-0.39-0.346-0.779-0.54-1.201c-0.596-1.235-1.262-2.642-0.929-3.598C291.659,10.145,293.229,10.06,293.411,10.055z
		 M243.495,15.856c0.182,0.355,0.271,0.783,0.271,1.26c0,1.594-1.007,3.702-2.573,5.119c-0.945,0.843-2.815,2.078-4.784,0.794
		c-1.469-0.959-1.95-2.263-1.479-3.984c0.781-2.876,4.005-5.708,5.941-5.806c1.722-0.077,2.683,0.429,3.204,0.903
		c-0.04,0.029-1.087,0.732-1.087,0.732L243.495,15.856z M251.68,15.065c-0.1-1.853-0.63-2.947-0.679-3.035
		c0,0-0.081-0.168-0.14-0.275c0.539-0.648,1.691-2.02,2.079-2.483c0.158,0.533,0.413,1.394,0.507,1.723
		C252.909,12.146,252.301,13.565,251.68,15.065z M284.962,18.084c-0.517,1.191-1.547,1.051-1.851,0.981
		c-0.03-0.007-2.094-0.528-2.094-0.528l0.411,1.445l-0.729-0.05c-2.333-0.153-4.104-0.183-5.295-0.166
		c0.23-0.809,0.329-1.146,0.489-1.688c1.166-0.077,4.767-0.297,4.767-0.297l1.739-5.736h-4.553c0.247-0.752,0.346-1.06,0.503-1.558
		c0.991-0.071,4.114-0.302,5.176-0.381c-0.213,1.375-0.015,2.981,0.988,4.787l0.227,0.388
		C285.207,16.05,285.58,16.656,284.962,18.084z"/>
	
		<linearGradient id="SVGID_1_" gradientUnits="userSpaceOnUse" x1="-387.8042" y1="495.7563" x2="-386.6019" y2="495.7563" gradientTransform="matrix(-9.2949 -30.2087 -30.2087 9.2949 11449.5928 -16260.5)">
		<stop  offset="0" style="stop-color:#FFFCDF"/>
		<stop  offset="0.1237" style="stop-color:#FFFCDF"/>
		<stop  offset="0.1593" style="stop-color:#FFFCDB"/>
		<stop  offset="0.1943" style="stop-color:#FFFBCF"/>
		<stop  offset="0.229" style="stop-color:#FFFABC"/>
		<stop  offset="0.2636" style="stop-color:#FFF9A0"/>
		<stop  offset="0.2981" style="stop-color:#FFF77C"/>
		<stop  offset="0.3325" style="stop-color:#FFF550"/>
		<stop  offset="0.3663" style="stop-color:#FFF31D"/>
		<stop  offset="0.3814" style="stop-color:#FFF204"/>
		<stop  offset="0.6753" style="stop-color:#FCAF17"/>
		<stop  offset="0.9845" style="stop-color:#F15A22"/>
		<stop  offset="1" style="stop-color:#F15A22"/>
	</linearGradient>
	<path fill="url(#SVGID_1_)" d="M54.995,63.356c3.377-1.393,6.637-2.37,6.637-2.37c4.688-17.86,7.681-23.249,7.681-23.249
		c1.896,8.385,2.393,19.661,2.393,19.661c4.488-2.401,9.879-4.494,9.879-4.494c4.986-19.056,13.068-37.911,13.068-37.911
		l-6.188-2.493L78.59,33.45c-1.594-11.776-4.29-19.954-4.29-19.954c-7.185,2.59-9.676,4.486-9.676,4.486l1.196,3.692
		c-13.563,23.938-17.756,44.879-17.76,44.895v0.001C48.064,66.568,51.591,64.762,54.995,63.356z"/>
	
		<linearGradient id="SVGID_2_" gradientUnits="userSpaceOnUse" x1="-387.3896" y1="494.5991" x2="-386.1875" y2="494.5991" gradientTransform="matrix(-0.9958 -20.2481 -20.2481 0.9958 9816.6084 -8296.6914)">
		<stop  offset="0" style="stop-color:#FFFCDF"/>
		<stop  offset="0.1237" style="stop-color:#FFFCDF"/>
		<stop  offset="0.1593" style="stop-color:#FFFCDB"/>
		<stop  offset="0.1943" style="stop-color:#FFFBCF"/>
		<stop  offset="0.229" style="stop-color:#FFFABC"/>
		<stop  offset="0.2636" style="stop-color:#FFF9A0"/>
		<stop  offset="0.2981" style="stop-color:#FFF77C"/>
		<stop  offset="0.3325" style="stop-color:#FFF550"/>
		<stop  offset="0.3663" style="stop-color:#FFF31D"/>
		<stop  offset="0.3814" style="stop-color:#FFF204"/>
		<stop  offset="0.6753" style="stop-color:#FCAF17"/>
		<stop  offset="0.9845" style="stop-color:#F15A22"/>
		<stop  offset="1" style="stop-color:#F15A22"/>
	</linearGradient>
	<path fill="url(#SVGID_2_)" d="M184.642,29.56l7.189-0.604l-1.499,5.888l6.186-0.596c3.29-9.482,5.189-25.642,5.189-25.642
		l-5.892,0.199c-12.671,11.375-23.841,28.232-23.841,28.232l8.578-1.195L184.642,29.56z M194.619,16.185c0,0,0.201,1.396-1.9,9.178
		l-0.888-1.597l-2.997-0.097L194.619,16.185z"/>
	
		<linearGradient id="SVGID_3_" gradientUnits="userSpaceOnUse" x1="-387.6899" y1="495.3569" x2="-386.4873" y2="495.3569" gradientTransform="matrix(-5.3118 -23.2391 -23.2391 5.3118 9561.7344 -11588.959)">
		<stop  offset="0" style="stop-color:#FFFCDF"/>
		<stop  offset="0.1237" style="stop-color:#FFFCDF"/>
		<stop  offset="0.1593" style="stop-color:#FFFCDB"/>
		<stop  offset="0.1943" style="stop-color:#FFFBCF"/>
		<stop  offset="0.229" style="stop-color:#FFFABC"/>
		<stop  offset="0.2636" style="stop-color:#FFF9A0"/>
		<stop  offset="0.2981" style="stop-color:#FFF77C"/>
		<stop  offset="0.3325" style="stop-color:#FFF550"/>
		<stop  offset="0.3663" style="stop-color:#FFF31D"/>
		<stop  offset="0.3814" style="stop-color:#FFF204"/>
		<stop  offset="0.6753" style="stop-color:#FCAF17"/>
		<stop  offset="0.9845" style="stop-color:#F15A22"/>
		<stop  offset="1" style="stop-color:#F15A22"/>
	</linearGradient>
	<path fill="url(#SVGID_3_)" d="M112.611,43.422c11.867-9.226,13.471-24.446,4.89-30.83c-6.763-5.031-21.454-0.895-21.454-0.895
		c1.4,3.791,2.298,8.481,2.298,8.481l2.695-0.999C93.06,36.136,89.367,52.7,89.365,52.706l0,0
		C89.368,52.706,102.23,51.491,112.611,43.422z M106.523,18.282c0,0,4.435-1.885,8.384,2.19c3.919,4.057,2.594,14.074-13.368,19.858
		c0,0,2.594-10.078,6.88-20.051L106.523,18.282z"/>
	
		<linearGradient id="SVGID_4_" gradientUnits="userSpaceOnUse" x1="-387.6841" y1="495.0093" x2="-386.482" y2="495.0093" gradientTransform="matrix(-2.9883 -30.5476 -30.5476 2.9883 14179.6582 -13274.0293)">
		<stop  offset="0" style="stop-color:#FFFCDF"/>
		<stop  offset="0.1237" style="stop-color:#FFFCDF"/>
		<stop  offset="0.1593" style="stop-color:#FFFCDB"/>
		<stop  offset="0.1943" style="stop-color:#FFFBCF"/>
		<stop  offset="0.229" style="stop-color:#FFFABC"/>
		<stop  offset="0.2636" style="stop-color:#FFF9A0"/>
		<stop  offset="0.2981" style="stop-color:#FFF77C"/>
		<stop  offset="0.3325" style="stop-color:#FFF550"/>
		<stop  offset="0.3663" style="stop-color:#FFF31D"/>
		<stop  offset="0.3814" style="stop-color:#FFF204"/>
		<stop  offset="0.6753" style="stop-color:#FCAF17"/>
		<stop  offset="0.9845" style="stop-color:#F15A22"/>
		<stop  offset="1" style="stop-color:#F15A22"/>
	</linearGradient>
	<path fill="url(#SVGID_4_)" d="M208.594,46.122c6.282-2.7,8.869-7.687,12.165-15.372c3.292-7.681,5.784-16.754,5.784-16.754
		l-2.79-1.403l7.282-0.399l4.093-7.283c-9.08-0.104-18.457,0.598-18.457,0.598l-4.585,8.287l6.477-0.799
		c-1.196,4.086-5.537,22.473-11.172,23.743c-3.702,0.831-5.884-1.295-5.884-1.295l-7.886,5.387
		C196.518,44.722,201.712,49.063,208.594,46.122z"/>
	
		<linearGradient id="SVGID_5_" gradientUnits="userSpaceOnUse" x1="-387.2163" y1="493.4468" x2="-386.0138" y2="493.4468" gradientTransform="matrix(-0.9961 -15.2737 -15.2737 0.9961 7391.8794 -6373.106)">
		<stop  offset="0" style="stop-color:#FFFCDF"/>
		<stop  offset="0.1237" style="stop-color:#FFFCDF"/>
		<stop  offset="0.1593" style="stop-color:#FFFCDB"/>
		<stop  offset="0.1943" style="stop-color:#FFFBCF"/>
		<stop  offset="0.229" style="stop-color:#FFFABC"/>
		<stop  offset="0.2636" style="stop-color:#FFF9A0"/>
		<stop  offset="0.2981" style="stop-color:#FFF77C"/>
		<stop  offset="0.3325" style="stop-color:#FFF550"/>
		<stop  offset="0.3663" style="stop-color:#FFF31D"/>
		<stop  offset="0.3814" style="stop-color:#FFF204"/>
		<stop  offset="0.6753" style="stop-color:#FCAF17"/>
		<stop  offset="0.9845" style="stop-color:#F15A22"/>
		<stop  offset="1" style="stop-color:#F15A22"/>
	</linearGradient>
	<path fill="url(#SVGID_5_)" d="M234.729,29.756c5.082,0.801,10.37-1.759,13.366-6.687c3.898-6.381,1.795-10.477,1.795-10.477
		l-2.195,1l3.593-4.285c-7.082-5.398-17.556-1.102-21.546,6.28C225.747,22.974,229.64,28.955,234.729,29.756z M240.818,12
		c4.089-0.202,4.981,2.49,4.981,2.49l-1.196,0.801c1.994,3.889-3.85,12.065-8.884,8.775C230.006,20.332,236.721,12.193,240.818,12z"
		/>
	
		<linearGradient id="SVGID_6_" gradientUnits="userSpaceOnUse" x1="-387.4424" y1="493.3286" x2="-386.24" y2="493.3286" gradientTransform="matrix(-1.9916 -15.9328 -15.9328 1.9916 7350.2197 -7122.5317)">
		<stop  offset="0" style="stop-color:#FFFCDF"/>
		<stop  offset="0.1237" style="stop-color:#FFFCDF"/>
		<stop  offset="0.1593" style="stop-color:#FFFCDB"/>
		<stop  offset="0.1943" style="stop-color:#FFFBCF"/>
		<stop  offset="0.229" style="stop-color:#FFFABC"/>
		<stop  offset="0.2636" style="stop-color:#FFF9A0"/>
		<stop  offset="0.2981" style="stop-color:#FFF77C"/>
		<stop  offset="0.3325" style="stop-color:#FFF550"/>
		<stop  offset="0.3663" style="stop-color:#FFF31D"/>
		<stop  offset="0.3814" style="stop-color:#FFF204"/>
		<stop  offset="0.6753" style="stop-color:#FCAF17"/>
		<stop  offset="0.9845" style="stop-color:#F15A22"/>
		<stop  offset="1" style="stop-color:#F15A22"/>
	</linearGradient>
	<path fill="url(#SVGID_6_)" d="M252.784,27.56l3.793-10.58l2.493,10.281l4.288-1.591c4.394-11.475,7.681-17.663,7.681-17.663
		l-4.094-2.194l-4.984,10.875l-3.49-9.781l-4.189,2.497l0.501,1.697c-2.297,4.788-6.287,15.561-6.287,15.561L252.784,27.56z"/>
	
		<linearGradient id="SVGID_7_" gradientUnits="userSpaceOnUse" x1="-387.0688" y1="492.6655" x2="-385.8668" y2="492.6655" gradientTransform="matrix(-0.6639 -13.6104 -13.6104 0.6639 6724.877 -5564.958)">
		<stop  offset="0" style="stop-color:#FFFCDF"/>
		<stop  offset="0.1237" style="stop-color:#FFFCDF"/>
		<stop  offset="0.1593" style="stop-color:#FFFCDB"/>
		<stop  offset="0.1943" style="stop-color:#FFFBCF"/>
		<stop  offset="0.229" style="stop-color:#FFFABC"/>
		<stop  offset="0.2636" style="stop-color:#FFF9A0"/>
		<stop  offset="0.2981" style="stop-color:#FFF77C"/>
		<stop  offset="0.3325" style="stop-color:#FFF550"/>
		<stop  offset="0.3663" style="stop-color:#FFF31D"/>
		<stop  offset="0.3814" style="stop-color:#FFF204"/>
		<stop  offset="0.6753" style="stop-color:#FCAF17"/>
		<stop  offset="0.9845" style="stop-color:#F15A22"/>
		<stop  offset="1" style="stop-color:#F15A22"/>
	</linearGradient>
	<path fill="url(#SVGID_7_)" d="M279.224,24.673l1.393-3.497c-4.482-0.304-6.881-0.105-6.881-0.105l1.197-4.188l4.789-0.296
		l0.997-3.289h-4.585l1.288-3.991l5.486-0.404l0.896-3.394V5.508c-6.178,0.203-11.767,1-11.767,1l1.306,3.494l-5.591,15.458v0.001
		C275.229,24.673,279.224,24.673,279.224,24.673z"/>
	
		<linearGradient id="SVGID_8_" gradientUnits="userSpaceOnUse" x1="-387.0913" y1="492.605" x2="-385.8891" y2="492.605" gradientTransform="matrix(-0.6642 -13.9473 -13.9473 0.6642 6902.2881 -5695.814)">
		<stop  offset="0" style="stop-color:#FFFCDF"/>
		<stop  offset="0.1237" style="stop-color:#FFFCDF"/>
		<stop  offset="0.1593" style="stop-color:#FFFCDB"/>
		<stop  offset="0.1943" style="stop-color:#FFFBCF"/>
		<stop  offset="0.229" style="stop-color:#FFFABC"/>
		<stop  offset="0.2636" style="stop-color:#FFF9A0"/>
		<stop  offset="0.2981" style="stop-color:#FFF77C"/>
		<stop  offset="0.3325" style="stop-color:#FFF550"/>
		<stop  offset="0.3663" style="stop-color:#FFF31D"/>
		<stop  offset="0.3814" style="stop-color:#FFF204"/>
		<stop  offset="0.6753" style="stop-color:#FCAF17"/>
		<stop  offset="0.9845" style="stop-color:#F15A22"/>
		<stop  offset="1" style="stop-color:#F15A22"/>
	</linearGradient>
	<path fill="url(#SVGID_8_)" d="M289.5,23.464c1.932-1.341,2.587-4.683,1.894-6.381c-0.693-1.692-2.14-3.863-1.495-5.684
		c0.906-2.59,3.492-2.595,3.492-2.595l-1.4-3.692c0,0-3.488-0.202-5.283,1.6c-3.4,3.395-1.597,6.684-1.102,7.579
		c0.499,0.899,1.502,1.998,0.499,4.286c-0.994,2.296-3.297,1.703-3.297,1.703l1.299,4.394C284.106,24.673,287.2,25.07,289.5,23.464z
		"/>
	
		<linearGradient id="SVGID_9_" gradientUnits="userSpaceOnUse" x1="-387.896" y1="496.0288" x2="-386.6941" y2="496.0288" gradientTransform="matrix(-16.9314 -40.1707 -40.1707 16.9314 13408.1904 -23900.3652)">
		<stop  offset="0" style="stop-color:#FFFCDF"/>
		<stop  offset="0.1237" style="stop-color:#FFFCDF"/>
		<stop  offset="0.1593" style="stop-color:#FFFCDB"/>
		<stop  offset="0.1943" style="stop-color:#FFFBCF"/>
		<stop  offset="0.229" style="stop-color:#FFFABC"/>
		<stop  offset="0.2636" style="stop-color:#FFF9A0"/>
		<stop  offset="0.2981" style="stop-color:#FFF77C"/>
		<stop  offset="0.3325" style="stop-color:#FFF550"/>
		<stop  offset="0.3663" style="stop-color:#FFF31D"/>
		<stop  offset="0.3814" style="stop-color:#FFF204"/>
		<stop  offset="0.6753" style="stop-color:#FCAF17"/>
		<stop  offset="0.9845" style="stop-color:#F15A22"/>
		<stop  offset="1" style="stop-color:#F15A22"/>
	</linearGradient>
	<path fill="url(#SVGID_9_)" d="M27.479,83.312c8.663-2.279,15.397-3.274,15.397-3.274c1.394-5.487,3.388-12.565,3.388-12.565
		c-1.295,0-7.679,1.198-7.679,1.198c3.987-23.244,11.474-40.705,11.474-40.705l-3.294-4.096c7.387-1.295,12.268-1.593,12.268-1.593
		c2.102-5.191,4.393-10.378,4.394-10.379l0,0c-18.758,1.499-31.925,5.685-31.925,5.685l-4.99,10.882
		c3.492-1.508,10.978-2.793,10.978-2.793C26.612,47.414,22.12,72.352,22.12,72.352c-4.386,1.098-7.88,2.394-7.88,2.394
		s-2.196,6.688-3.093,13.376l0,0C11.147,88.12,17.502,85.944,27.479,83.312z"/>
	
		<linearGradient id="SVGID_10_" gradientUnits="userSpaceOnUse" x1="-387.3774" y1="494.189" x2="-386.1754" y2="494.189" gradientTransform="matrix(-1.9913 -15.2668 -15.2668 1.9913 6944.4355 -6858.8618)">
		<stop  offset="0" style="stop-color:#FFFCDF"/>
		<stop  offset="0.1237" style="stop-color:#FFFCDF"/>
		<stop  offset="0.1593" style="stop-color:#FFFCDB"/>
		<stop  offset="0.1943" style="stop-color:#FFFBCF"/>
		<stop  offset="0.229" style="stop-color:#FFFABC"/>
		<stop  offset="0.2636" style="stop-color:#FFF9A0"/>
		<stop  offset="0.2981" style="stop-color:#FFF77C"/>
		<stop  offset="0.3325" style="stop-color:#FFF550"/>
		<stop  offset="0.3663" style="stop-color:#FFF31D"/>
		<stop  offset="0.3814" style="stop-color:#FFF204"/>
		<stop  offset="0.6753" style="stop-color:#FCAF17"/>
		<stop  offset="0.9845" style="stop-color:#F15A22"/>
		<stop  offset="1" style="stop-color:#F15A22"/>
	</linearGradient>
	<path fill="url(#SVGID_10_)" d="M180.255,8.509l-7.379,14.365l-2.901-13.17l-6.378,2.095l0.7,3.493L151.52,37.333l8.785-1.395
		l5.88-11.774c0,0,1.002,3.5,1.998,11.175l6.683-2.69c0,0,8.183-18.358,11.572-24.347V8.301L180.255,8.509z"/>
	
		<linearGradient id="SVGID_11_" gradientUnits="userSpaceOnUse" x1="-387.4961" y1="494.7651" x2="-386.2939" y2="494.7651" gradientTransform="matrix(-2.6562 -17.9291 -17.9291 2.6562 7984.5 -8217.5762)">
		<stop  offset="0" style="stop-color:#FFFCDF"/>
		<stop  offset="0.1237" style="stop-color:#FFFCDF"/>
		<stop  offset="0.1593" style="stop-color:#FFFCDB"/>
		<stop  offset="0.1943" style="stop-color:#FFFBCF"/>
		<stop  offset="0.229" style="stop-color:#FFFABC"/>
		<stop  offset="0.2636" style="stop-color:#FFF9A0"/>
		<stop  offset="0.2981" style="stop-color:#FFF77C"/>
		<stop  offset="0.3325" style="stop-color:#FFF550"/>
		<stop  offset="0.3663" style="stop-color:#FFF31D"/>
		<stop  offset="0.3814" style="stop-color:#FFF204"/>
		<stop  offset="0.6753" style="stop-color:#FCAF17"/>
		<stop  offset="0.9845" style="stop-color:#F15A22"/>
		<stop  offset="1" style="stop-color:#F15A22"/>
	</linearGradient>
	<path fill="url(#SVGID_11_)" d="M129.257,44.161c2.473-0.612,4.903-1.134,4.903-1.134l5.091-8.184l8.077-0.995l-1.594,6.582
		l6.288-0.899c3.986-17.932,4.787-29.392,4.791-29.421v-0.003l-6.388,0.199c-19.441,22.327-25.935,35.1-25.945,35.12l0.001,0
		C124.484,45.425,126.897,44.747,129.257,44.161z M150.122,18.576c0,0,0.053,1.829-0.639,5.386
		c-0.651,3.363-1.156,5.397-1.156,5.397l-1.195-1.601l-3.691,0.296L150.122,18.576z"/>
	
		<linearGradient id="SVGID_12_" gradientUnits="userSpaceOnUse" x1="-387.5942" y1="495.3394" x2="-386.392" y2="495.3394" gradientTransform="matrix(-2.3236 -26.2238 -26.2238 2.3236 12220.9512 -11265.4824)">
		<stop  offset="0" style="stop-color:#FFFCDF"/>
		<stop  offset="0.1237" style="stop-color:#FFFCDF"/>
		<stop  offset="0.1593" style="stop-color:#FFFCDB"/>
		<stop  offset="0.1943" style="stop-color:#FFFBCF"/>
		<stop  offset="0.229" style="stop-color:#FFFABC"/>
		<stop  offset="0.2636" style="stop-color:#FFF9A0"/>
		<stop  offset="0.2981" style="stop-color:#FFF77C"/>
		<stop  offset="0.3325" style="stop-color:#FFF550"/>
		<stop  offset="0.3663" style="stop-color:#FFF31D"/>
		<stop  offset="0.3814" style="stop-color:#FFF204"/>
		<stop  offset="0.6753" style="stop-color:#FCAF17"/>
		<stop  offset="0.9845" style="stop-color:#F15A22"/>
		<stop  offset="1" style="stop-color:#F15A22"/>
	</linearGradient>
	<path fill="url(#SVGID_12_)" d="M123.229,41.766c2.247-0.499,4.346-0.842,4.346-0.842c5.389-17.055,13.069-30.722,13.069-30.723
		l0,0l-7.084,0.499c-8.978,14.97-14.46,32.12-14.461,32.122l0,0C119.1,42.822,121.251,42.212,123.229,41.766z"/>
</g>
</svg>
